<svg width="160" height="56" viewBox="0 0 160 56" fill="none" xmlns="http://www.w3.org/2000/svg">
<path d="M91.7105 36.367C94.5785 36.0268 100.852 35.2827 101.97 36.7169C103.101 38.165 100.716 44.1203 99.6497 46.7824L99.6478 46.7871C99.3236 47.5944 100.018 47.9186 100.746 47.3098C105.49 43.3466 106.708 35.0429 105.742 33.8453C104.776 32.6544 96.4917 31.6288 91.4434 35.1819C90.6626 35.7244 90.7949 36.4787 91.6617 36.3728L91.7105 36.367Z" fill="#181818"/>
<path d="M65.6391 50.9026C76.6621 50.9026 89.4649 47.429 98.2979 40.9183C99.7601 39.8332 98.5096 38.2188 97.0143 38.854C87.1161 43.0555 76.3511 45.0801 66.5654 45.0801C52.0555 45.0801 38.0087 41.1036 26.6482 34.4938C25.6558 33.9115 24.9147 34.9304 25.7418 35.6781C36.2686 45.186 50.183 50.9026 65.6391 50.9026Z" fill="#181818"/>
<path fill-rule="evenodd" clip-rule="evenodd" d="M84.2777 31.5827C83.9668 31.8606 83.5168 31.8805 83.1662 31.6952C81.8372 30.5915 81.4332 29.9911 80.8162 29.074C80.7083 28.9135 80.5938 28.7433 80.4667 28.559C77.8862 31.1924 76.0535 31.9797 72.7122 31.9797C68.7489 31.9797 65.6722 29.5383 65.6722 24.6487C65.6722 20.831 67.7366 18.2307 70.6875 16.9604C72.8288 16.0173 75.6818 15.7254 78.1545 15.4724C78.631 15.4236 79.0933 15.3763 79.5337 15.3261V14.7174C79.5337 14.6035 79.5346 14.4876 79.5355 14.3701C79.5435 13.3335 79.5524 12.1776 78.9581 11.3099C78.3891 10.4431 77.2907 10.0859 76.3181 10.0859C74.5251 10.0859 72.9305 11.0055 72.5401 12.9111C72.4607 13.3345 72.1498 13.7514 71.7197 13.7712L67.1609 13.2816C66.7772 13.1956 66.3471 12.8846 66.4596 12.2958C67.505 6.7644 72.5071 5.09705 76.9798 5.09705C79.2691 5.09705 82.2597 5.70576 84.066 7.43927C86.1705 9.40392 86.1559 11.9725 86.1398 14.7851C86.1384 15.032 86.137 15.2808 86.137 15.5312V22.8622C86.137 24.8294 86.8648 25.8102 87.6329 26.8455C87.7252 26.9698 87.818 27.0948 87.9102 27.2225C88.2079 27.6459 88.2741 28.1554 87.8903 28.473C86.9309 29.2736 85.2239 30.7623 84.2843 31.596L84.2777 31.5827ZM79.5337 20.1164C79.5337 20.2003 79.5338 20.2836 79.5339 20.3663C79.5359 22.0893 79.5376 23.5521 78.6537 25.1052C77.9061 26.4285 76.7151 27.2423 75.3984 27.2423C73.5922 27.2423 72.5335 25.8661 72.5335 23.8349C72.5335 19.8253 76.1263 19.0975 79.5337 19.0975V20.1164Z" fill="#181818"/>
<path d="M30.7505 31.6489H35.4548C35.9577 31.6489 36.3613 31.2585 36.3613 30.7755V17.9793C36.3613 17.8791 36.3611 17.7775 36.3609 17.6748C36.3563 14.9148 36.3503 11.3231 39.61 11.3231C42.6103 11.3231 42.559 14.5187 42.5173 17.1207C42.5126 17.4163 42.508 17.7046 42.508 17.9793L42.5146 30.7755C42.5146 31.2387 42.8851 31.6158 43.3615 31.6489H48.0592C48.562 31.6489 48.9656 31.2585 48.9656 30.7755V17.9793C48.9656 17.8724 48.9654 17.7615 48.9651 17.6472C48.9616 16.2967 48.957 14.4768 49.4023 13.3544C49.8853 12.137 51.0763 11.3761 52.2143 11.3761C53.5773 11.3761 54.6293 11.8326 54.98 13.4536C55.1611 14.2312 55.1364 16.029 55.1199 17.2323C55.1159 17.5239 55.1123 17.7805 55.1123 17.9793V30.7755C55.1123 31.2387 55.4895 31.6158 55.9592 31.6489H60.6569C61.1598 31.6489 61.5634 31.2585 61.5634 30.7755L61.57 15.5378C61.57 15.1663 61.5763 14.7872 61.5826 14.4045L61.5826 14.4039C61.6204 12.1217 61.6604 9.70797 60.3857 7.9686C59.069 6.14245 56.912 5.32863 54.9403 5.32863C52.168 5.32863 49.581 6.75117 48.4429 9.80136C47.1196 6.75117 45.2803 5.32863 42.3359 5.32863C39.4379 5.32863 37.2876 6.75117 36.1429 9.80136H36.0569V6.6453C36.0238 6.20862 35.6599 5.85793 35.2034 5.8381H30.8167C30.3138 5.8381 29.9102 6.22186 29.9102 6.70486V30.8483C29.9433 31.2784 30.3006 31.6158 30.7505 31.6489Z" fill="#181818"/>
<path d="M91.8601 6.64528V10.0991C91.8601 10.6152 92.2571 10.9658 92.7533 10.9658H100.832L91.5491 24.2782C90.9867 25.1317 90.9801 26.0911 90.9801 26.6535V30.1536C90.9801 30.6564 91.5425 31.2387 92.0785 30.9475C97.3385 28.1554 103.657 28.4267 108.415 30.9211C108.997 31.2254 109.553 30.6366 109.553 30.1337V26.4484C109.506 25.9521 109.341 25.4493 108.732 25.1052C106.033 23.5834 102.89 23.1401 99.9123 23.2129L107.925 11.773C108.666 10.7475 109.083 10.0991 109.089 9.60284V6.64528C109.089 6.1292 108.692 5.77191 108.196 5.77191H92.7335C92.2571 5.77191 91.8601 6.12258 91.8601 6.64528Z" fill="#181818"/>
<path fill-rule="evenodd" clip-rule="evenodd" d="M122.402 5.32863C129.382 5.32863 133.16 11.3231 133.16 18.9453C133.16 26.3094 128.985 32.1518 122.402 32.1518C115.547 32.1518 111.815 26.1573 111.815 18.6873C111.815 11.171 115.593 5.32863 122.402 5.32863ZM122.441 10.2579C118.974 10.2579 118.756 14.982 118.756 17.9264L118.756 18.0347C118.756 21.0286 118.754 27.1762 122.402 27.1762C126.047 27.1762 126.219 22.0947 126.219 18.9982C126.219 16.9604 126.133 14.5255 125.518 12.5935C124.989 10.9129 123.937 10.2579 122.441 10.2579Z" fill="#181818"/>
<path d="M137.527 31.6489H142.211C142.714 31.6489 143.125 31.2585 143.131 30.7755V17.7742C143.131 16.1465 143.217 14.6777 143.879 13.2022C144.402 12.0377 145.454 11.2702 146.598 11.2702C149.597 11.2702 149.568 14.5617 149.546 17.1445C149.544 17.3601 149.543 17.5708 149.543 17.7742V30.888C149.589 31.2982 149.946 31.6158 150.376 31.6489H155.094C155.557 31.6489 155.947 31.3115 156 30.888V15.69C156 13.3544 156 10.1057 154.77 8.17371C153.446 6.08952 151.389 5.32863 149.278 5.32863C146.029 5.32863 144.183 6.90335 142.866 10.205H142.78V6.51298C142.688 6.13584 142.35 5.85793 141.94 5.8381H137.58C137.104 5.8381 136.713 6.18215 136.673 6.62545L136.68 30.7755C136.68 31.2387 137.057 31.6158 137.527 31.6489Z" fill="#181818"/>
<path fill-rule="evenodd" clip-rule="evenodd" d="M21.4941 31.6953C21.8448 31.8805 22.2947 31.8607 22.6057 31.5828L22.6189 31.596C23.5584 30.7623 25.2655 29.2736 26.2249 28.473C26.6086 28.1555 26.5425 27.646 26.2381 27.2225C26.1459 27.0949 26.0531 26.9698 25.9608 26.8455C25.1927 25.8102 24.4649 24.8294 24.4649 22.8623V15.5312C24.4649 15.2808 24.4663 15.032 24.4677 14.7851C24.4838 11.9725 24.4985 9.40396 22.3939 7.43931C20.5876 5.7058 17.597 5.09708 15.3077 5.09708C10.835 5.09708 5.83954 6.76444 4.78753 12.2958C4.68166 12.8847 5.10512 13.1956 5.48887 13.2816L10.0542 13.7713C10.4777 13.7514 10.7887 13.3346 10.8681 12.9111C11.2584 11.0056 12.8596 10.0859 14.6527 10.0859C15.6187 10.0859 16.717 10.4432 17.2926 11.3099C17.8805 12.1768 17.8715 13.3314 17.8635 14.3673C17.8626 14.4858 17.8617 14.6027 17.8617 14.7174V15.3261C17.4212 15.3764 16.9589 15.4237 16.4824 15.4724C14.0097 15.7254 11.1568 16.0173 9.01544 16.9604C6.07112 18.2308 4.00017 20.831 4.00017 24.6487C4.00017 29.5383 7.08343 31.9798 11.0401 31.9798C14.388 31.9798 16.2142 31.1924 18.7946 28.5591C18.9307 28.7549 19.0523 28.9348 19.1667 29.1041C19.7748 30.0044 20.1798 30.6037 21.4941 31.6953ZM17.8618 20.3663C17.8618 20.2836 17.8617 20.2004 17.8617 20.1165V19.0975C14.4608 19.0975 10.8681 19.8253 10.8681 23.8349C10.8681 25.8662 11.9201 27.2424 13.7264 27.2424C15.0497 27.2424 16.234 26.4286 16.9817 25.1053C17.8656 23.5521 17.8639 22.0894 17.8618 20.3663Z" fill="#181818"/>
</svg>
