<svg width="86" height="86" viewBox="0 0 86 86" fill="none" xmlns="http://www.w3.org/2000/svg">
<path d="M6.15156 71.4652C6.11501 71.461 5.9911 71.4482 5.87622 71.4366C4.82752 71.3313 3.70805 70.9025 2.82804 70.2689C1.50865 69.319 0.578899 67.9359 0.191088 66.3461C-0.0149985 65.5014 -0.0559576 64.5549 0.0758445 63.6842C0.429247 61.3498 1.97189 59.3502 4.11185 58.4526C4.64591 58.2287 5.17593 58.087 5.80027 58.0014C6.14636 57.954 6.98922 57.9538 7.33837 58.001C8.0788 58.1012 8.70639 58.2879 9.3512 58.5999C10.0607 58.9432 10.5517 59.2966 11.146 59.892C11.6656 60.4124 11.9865 60.8456 12.3584 61.529L12.4376 61.6743L12.1571 61.8818C11.7708 62.1675 10.8646 62.8141 10.5695 63.0145L10.3257 63.1801L10.2254 62.9622C10.1014 62.6927 10.0131 62.533 9.8702 62.3195C9.29901 61.4665 8.38817 60.8572 7.39534 60.664C6.86999 60.5618 6.22323 60.5732 5.70532 60.6937C5.16148 60.8204 4.5709 61.1044 4.11975 61.4563C3.93789 61.5982 3.60319 61.9301 3.45593 62.1147C2.66134 63.1104 2.36866 64.3789 2.64117 65.6459C2.73553 66.0845 2.97975 66.6576 3.23452 67.0383C3.90882 68.0457 4.94238 68.6911 6.11309 68.8358C6.32005 68.8614 6.81858 68.8614 7.02555 68.8358C8.06232 68.7077 9.02029 68.169 9.6749 67.3461C9.86768 67.1037 10.002 66.894 10.1552 66.596C10.2224 66.4655 10.2829 66.3587 10.2898 66.3587C10.2966 66.3587 10.774 66.6955 11.3505 67.1073L12.3988 67.8558L12.2925 68.0567C12.0721 68.4736 11.6929 68.9977 11.3397 69.3735C10.7379 70.0138 10.1518 70.449 9.38915 70.8215C8.73049 71.1433 8.03255 71.3485 7.29088 71.4386C7.12459 71.4588 6.26979 71.4787 6.15156 71.4652ZM15.1143 64.6497V58.089H17.6589V62.7983H24.305V58.089H26.8495V71.2104H24.305V65.4378H17.6589V71.2104H15.1143V64.6497ZM29.4202 70.0473C29.7038 69.4076 31.0124 66.4553 32.3281 63.4866L34.7204 58.0891L36.5053 58.0892L38.2903 58.0895L41.1821 64.5692C42.7726 68.1331 44.0902 71.0853 44.1102 71.1297L44.1465 71.2104H41.0997L40.5115 69.9097L39.9233 68.6091L36.5186 68.6137L33.1138 68.6184L32.5322 69.9144L31.9506 71.2104H28.9045L29.4202 70.0473ZM38.8471 65.962C38.8364 65.9157 36.5247 60.7485 36.5149 60.7487C36.5078 60.7488 34.3124 65.8725 34.2773 65.9707C34.2734 65.9816 35.1513 65.9884 36.5621 65.9884C38.511 65.9884 38.8523 65.9845 38.8471 65.962ZM46.1992 64.6497V58.089L47.9889 58.0894L49.7786 58.0898L52.5795 62.0237L55.3804 65.9575L55.3851 62.0233L55.3899 58.089H57.9534V71.2107L56.9248 71.2058L55.8962 71.2009L52.3437 66.2692C50.3898 63.5568 48.7848 61.3373 48.777 61.3369C48.7691 61.3365 48.7627 63.5578 48.7627 66.2733V71.2104H46.1992V64.6497ZM62.5867 64.6497V58.089H71.7583V60.7285H65.1502V63.349H71.2646V65.9884H65.1502V68.6089H72.7078V71.2104H62.5867V64.6497ZM76.2967 64.6497V58.089H78.8602V68.6089H86V71.2104H76.2967V64.6497ZM32.3664 54.7519C29.6275 54.6253 26.5776 53.7936 24.1188 52.5031C22.2312 51.5123 20.7351 50.4036 19.1678 48.834C17.9403 47.6046 17.0347 46.4721 16.2681 45.2079L15.9325 44.6545L16.4086 44.402C17.3363 43.91 21.5653 41.7445 21.5985 41.7445C21.617 41.7445 21.7917 41.9823 21.9867 42.2729C24.1906 45.5578 27.6384 47.6946 31.6732 48.2762C32.3785 48.3779 34.4996 48.3617 35.2676 48.2487C36.1223 48.1231 37.1475 47.89 37.7986 47.6733C37.8409 47.6592 37.76 47.5277 37.5737 47.3082C36.1315 45.6081 34.8168 43.2748 34.0772 41.1026C32.7393 37.1733 32.644 32.9555 33.8037 28.9925C34.5239 26.5316 35.7633 24.1429 37.3329 22.1909C37.5667 21.9001 37.7581 21.6435 37.7581 21.6207C37.7581 21.5433 36.5328 21.2171 35.7298 21.0808C34.4891 20.8702 32.5469 20.8441 31.4256 21.023C29.5389 21.3239 27.6239 22.0304 26.1275 22.9778C24.46 24.0336 23.0694 25.3904 21.9597 27.0444L21.4697 27.7747L20.846 27.4472C20.503 27.2672 19.2288 26.6068 18.0144 25.9798C16.8 25.3528 15.8026 24.8365 15.798 24.8324C15.7787 24.8154 16.5389 23.6061 16.8519 23.1562C17.8021 21.79 19.4893 19.9806 20.7359 18.9911C23.9955 16.4037 27.6192 14.9465 31.6989 14.5826C32.4557 14.515 34.3322 14.5144 35.0622 14.5815C37.6523 14.8193 39.8725 15.4473 42.1663 16.5908L43.2625 17.1374L43.6298 16.9284C44.2228 16.591 45.2764 16.1041 46.0766 15.7977C48.3218 14.938 50.5829 14.5288 53.0812 14.53C54.8257 14.5309 56.2812 14.7023 57.8611 15.093C61.4305 15.9756 64.4744 17.6684 67.0971 20.2293C68.519 21.6176 69.6333 23.0351 70.5329 24.6L70.6693 24.8372L68.4502 25.982C67.2297 26.6117 65.953 27.2727 65.613 27.4509L64.9949 27.7751L64.5277 27.0703C62.2224 23.5927 58.4514 21.3287 54.3239 20.9441C53.102 20.8302 51.2875 20.9351 50.1846 21.1833C49.617 21.311 48.6955 21.5743 48.6957 21.6087C48.6959 21.6266 48.8466 21.8262 49.0307 22.0521C51.3961 24.9544 52.8729 28.4922 53.3501 32.399C53.464 33.3314 53.4792 35.7121 53.3772 36.6353C52.9461 40.5336 51.4721 44.1312 49.1193 47.0274C48.5858 47.6839 48.6086 47.6385 48.7797 47.7046C48.8605 47.7358 49.2385 47.8404 49.6198 47.937C51.5575 48.428 53.6434 48.4973 55.6019 48.1359C59.1641 47.4786 62.3723 45.3719 64.4358 42.335C64.6277 42.0526 64.801 41.8026 64.8209 41.7794C64.8408 41.7563 65.3165 41.9676 65.8779 42.249C66.9901 42.8065 70.4739 44.6093 70.5113 44.6467C70.5735 44.7089 69.4632 46.3571 68.7823 47.2132C68.1377 48.0237 66.4479 49.7114 65.6407 50.3512C62.7233 52.6632 59.4493 54.0768 55.8431 54.5815C51.7025 55.161 47.3174 54.3849 43.7495 52.4411L43.2453 52.1664L42.6199 52.4973C39.5211 54.1369 35.9666 54.9184 32.3664 54.7519ZM43.9345 43.362C45.6613 41.2244 46.7388 38.6315 47.0043 35.9743C47.0935 35.0825 47.0405 33.2659 46.9017 32.4539C46.5198 30.2193 45.7025 28.3041 44.3842 26.5539C44.136 26.2243 43.7745 25.7837 43.5808 25.5748L43.2289 25.195L42.9023 25.5492C42.4717 26.016 41.7543 26.9683 41.3927 27.553C39.5567 30.5219 38.9572 34.1694 39.7347 37.6409C40.224 39.8254 41.349 42.0261 42.865 43.7644L43.2141 44.1647L43.3669 44.0201C43.4509 43.9406 43.7063 43.6444 43.9345 43.362Z" fill="black"/>
</svg>
